<svg width="109" height="19" viewBox="0 0 109 19" fill="none" xmlns="http://www.w3.org/2000/svg">
<path d="M33.793 16.33C32.9592 15.2263 32.2683 14.0266 32.0778 13.6667C31.6251 12.9229 30.7198 11.9152 29.7669 11.6273C32.1254 11.2914 33.0783 9.4439 33.0783 7.74038C33.0783 4.76521 30.5293 3.82947 27.8849 3.82947H20.5712V4.0694H20.857C21.5479 4.0694 22.0958 4.59725 22.1197 5.31705V16.7139C22.0958 17.4337 21.5241 17.9855 20.857 17.9855H20.5712V18.2255H27.1225V17.9855H26.8605C26.2173 17.9855 25.574 17.5057 25.574 16.6899V4.8132C25.8361 4.8132 26.3125 4.7892 26.9319 4.8132C27.7419 4.86118 29.3619 5.19709 29.4572 7.57243C29.481 8.0283 29.4334 8.3882 29.3857 8.58014C28.9807 10.5956 27.8849 10.9555 26.9081 10.9795C26.5508 10.9795 26.3125 10.9795 26.2887 10.9795V11.1714C26.7414 11.1954 27.3131 11.6273 27.7181 12.635C27.9325 13.4508 28.7902 15.0583 29.3143 15.9221C30.4578 17.6976 31.6728 18.2015 34.2457 18.2015H36.2468V17.9615C35.2701 17.9615 34.7221 17.6256 33.793 16.33Z" fill="white"/>
<path d="M48.6636 7.78837C48.5921 5.55699 46.9483 3.80548 43.1366 3.80548H36.0849V4.04541H36.3708C37.0855 4.04541 37.6572 4.59725 37.6572 5.31705V16.7139C37.6334 17.4337 37.0855 17.9855 36.3708 17.9855H36.0849V18.2015H42.6839V17.9615H42.398C41.6357 17.9615 41.1116 17.4337 41.0878 16.7139V4.76521H42.1836C43.9466 4.76521 44.9948 5.8689 45.0424 7.62041C45.0424 7.98031 44.9948 8.48417 44.8995 8.89206C44.1848 11.5793 41.8501 11.3154 41.8501 11.3154V11.5313C44.971 13.6427 48.8065 11.6033 48.6636 7.78837Z" fill="white"/>
<path d="M64.7427 5.34105C64.7427 4.59725 65.3383 4.04541 66.053 4.04541H66.3151V3.80548H59.7398V4.04541H60.0019C60.7166 4.04541 61.2884 4.59725 61.3122 5.34105V10.5716H55.0467V5.31705C55.0705 4.59725 55.6423 4.04541 56.357 4.04541H56.619V3.80548H50.0438V4.04541H50.3059C50.9967 4.04541 51.5923 4.59725 51.5923 5.34105V16.6899C51.5923 17.4337 50.9967 17.9855 50.3059 17.9855L50.0438 17.9615V18.2015H56.619V17.9615L56.357 17.9855C55.6423 17.9855 55.0705 17.4337 55.0467 16.7139V11.5073H61.3122V16.7139C61.2884 17.4337 60.7166 17.9855 60.0019 17.9855H59.7398V18.2255H66.2912V17.9855H66.0292C65.3145 17.9855 64.7427 17.4337 64.7427 16.7139V5.34105Z" fill="white"/>
<path d="M79.6827 13.8107C79.0633 15.9221 77.6815 17.2177 75.6804 17.2417H72.7978V11.5553H75.5374C76.6571 11.6033 77.3242 12.3951 77.3242 13.4508V13.6187H77.5862V8.55615H77.3242V8.70011C77.3242 9.77981 76.6333 10.5716 75.5136 10.5956H72.7978V4.7892H76.2283C77.61 4.8132 78.3962 5.67695 78.3962 7.04457V7.28451H78.6583V3.44558C78.2771 3.58954 77.0621 3.80548 76.1807 3.80548H67.7949V4.04541H68.0808C68.7716 4.04541 69.3672 4.59725 69.3672 5.31705V16.7139C69.3434 17.4337 68.7716 17.9615 68.0808 17.9615H67.7949V18.2015H78.9918L79.9209 13.8107H79.6827Z" fill="white"/>
<path d="M96.727 3.80548H92.3198V4.02142H92.6533C93.2489 4.02142 93.7253 4.4533 93.7491 5.05313V13.1389C93.7253 15.9221 92.2483 17.5776 89.7707 17.5776C87.3407 17.5776 85.9113 15.8261 85.9113 12.8749V5.07712C85.9351 4.4533 86.3878 4.02142 86.9834 4.02142H87.3407V3.80548H81.0752V4.02142H81.3849C81.9805 4.02142 82.4808 4.4533 82.4808 5.07712V13.0189C82.4808 16.4499 84.7202 18.5134 89.318 18.5134C93.1297 18.5134 95.3215 16.426 95.3215 12.9709V5.05313C95.3215 4.4533 95.8218 4.02142 96.3935 4.02142H96.727V3.80548Z" fill="white"/>
<path d="M102.732 8.24424C101.803 7.74038 101.112 7.23652 101.184 6.32477C101.255 5.24507 102.256 4.47729 103.781 4.47729C105.686 4.47729 106.758 5.41303 106.758 6.87662H106.949L107.235 4.14138L107.283 3.7335H105.996C104.996 3.61353 103.685 3.51756 102.899 3.51756C100.469 3.51756 98.8015 4.86118 98.6109 7.14055C98.4204 8.79608 99.1112 10.2357 100.707 11.0754L104.09 13.2348C105.377 13.8827 105.877 14.5545 105.877 15.3942C105.877 16.5699 104.972 17.5536 103.114 17.5776C100.588 17.5776 99.0398 15.7541 99.1827 13.5947H98.9921C98.4204 14.5065 98.1107 16.33 98.468 17.2417C99.1589 17.9855 100.803 18.5134 102.851 18.5134C106.163 18.5134 108.307 16.8818 108.45 14.1706C108.569 12.4671 107.759 11.2434 106.496 10.5716L102.732 8.24424Z" fill="white"/>
<path d="M11.8254 1.37093C6.30264 -0.119451 1.89565 2.16883 0.514489 7.3602C-0.872838 12.5747 1.81386 16.7525 7.33661 18.2429C12.8594 19.7333 17.2372 17.462 18.6245 12.2474C20.0057 7.05604 17.3481 2.86131 11.8254 1.37093ZM7.59558 17.2695C4.35097 16.3939 3.06135 12.9906 4.2822 8.4018C5.50921 3.78982 8.31564 1.49189 11.5603 2.36749C14.8049 3.24309 16.0715 6.64018 14.8445 11.2522C13.6236 15.841 10.8402 18.1451 7.59558 17.2695Z" fill="white"/>
</svg>
